# xmcd CD database file
#
# Track frame offsets:
#	150
#	17984
#	47835
#	67756
#	102639
#	126700
#	154202
#	178253
#	203580
#	237256
#	255599
#	282769
#
# Disc length: 4172 seconds
#
# Revision: 0
# Processed by: cddbd v1.5.2PL0 Copyright (c) Steve Scherf et al.
# Submitted via: CDex 1.51
#
DISCID=af104a0c
DTITLE=Various Artist - Baltimore On Tap/Live At The Cat's Eye
DYEAR=2005
DGENRE=Blues
TTITLE0=King-A-Ling - Automatic Slim
TTITLE1=Get Out Of My Life Woman - Automatic Slim
TTITLE2=Blues Man - Linwood Taylor
TTITLE3=Dirty Lipstick - Rude Dog
TTITLE4=Shakey Ground - Ursula Ricks
TTITLE5=Shake Your Hips - Rude Dog
TTITLE6=Ain't The Kind Of Woman - P. J. Ellis
TTITLE7=Tore Down - Erik Olsen
TTITLE8=Been Downhearted Baby - Erik Olsen
TTITLE9=Can't Get A Woman - Linwood Taylor
TTITLE10=Good Morning Little School Girl - Linwood Taylor
TTITLE11=Crab Town Crawl - Rude Dog
EXTD=YEAR: 2005
EXTT0=
EXTT1=
EXTT2=
EXTT3=
EXTT4=
EXTT5=
EXTT6=
EXTT7=
EXTT8=
EXTT9=
EXTT10=
EXTT11=
PLAYORDER=
